<svg xmlns="http://www.w3.org/2000/svg" viewBox="0 0 412 286.0" width="412" role="img" aria-label="Rotation through 90 degrees counterclockwise: the parallelogram of u and v turns into the parallelogram of T(u) and T(v)"><defs><marker id="ah-rot" viewBox="0 0 10 10" refX="9" refY="5" markerUnits="userSpaceOnUse" markerWidth="11" markerHeight="11" orient="auto"><path class="arrowhead" d="M0,0 L10,5 L0,10 z"/></marker></defs><g transform="translate(0,0)"><polygon class="hl" points="176,236 296,206 356,116 236,146" style="opacity:0.45"/><polygon class="bad" points="176,236 146,116 56,56 86,176" style="opacity:0.35"/><line class="ax" x1="26" y1="236" x2="386" y2="236"/><line class="ax" x1="176" y1="260.0" x2="176" y2="26"/><text x="382" y="230" text-anchor="end"><tspan style="font-family: var(--font-serif); font-style: italic">x</tspan><tspan dy="4" font-size="10">1</tspan><tspan dy="-4">​</tspan></text><text x="182" y="38"><tspan style="font-family: var(--font-serif); font-style: italic">x</tspan><tspan dy="4" font-size="10">2</tspan><tspan dy="-4">​</tspan></text><line class="ax" x1="26" y1="233" x2="26" y2="239"/><line class="ax" x1="56" y1="233" x2="56" y2="239"/><line class="ax" x1="86" y1="233" x2="86" y2="239"/><line class="ax" x1="116" y1="233" x2="116" y2="239"/><line class="ax" x1="146" y1="233" x2="146" y2="239"/><line class="ax" x1="206" y1="233" x2="206" y2="239"/><line class="ax" x1="236" y1="233" x2="236" y2="239"/><line class="ax" x1="266" y1="233" x2="266" y2="239"/><line class="ax" x1="296" y1="233" x2="296" y2="239"/><line class="ax" x1="326" y1="233" x2="326" y2="239"/><line class="ax" x1="356" y1="233" x2="356" y2="239"/><line class="ax" x1="386" y1="233" x2="386" y2="239"/><line class="ax" x1="173" y1="206" x2="179" y2="206"/><line class="ax" x1="173" y1="176" x2="179" y2="176"/><line class="ax" x1="173" y1="146" x2="179" y2="146"/><line class="ax" x1="173" y1="116" x2="179" y2="116"/><line class="ax" x1="173" y1="86" x2="179" y2="86"/><line class="ax" x1="173" y1="56" x2="179" y2="56"/><line class="ax" x1="173" y1="26" x2="179" y2="26"/><line class="l1" x1="176" y1="236" x2="296" y2="206" marker-end="url(#ah-rot)"/><circle class="pt" cx="296" cy="206" r="3"/><text class="t" x="302" y="210" text-anchor="start">u</text><line class="l1" x1="176" y1="236" x2="236" y2="146" marker-end="url(#ah-rot)"/><circle class="pt" cx="236" cy="146" r="3"/><text class="t" x="240" y="140" text-anchor="start">v</text><line class="l1" x1="176" y1="236" x2="356" y2="116" marker-end="url(#ah-rot)"/><circle class="pt" cx="356" cy="116" r="3"/><text class="t" x="362" y="120" text-anchor="start">u + v</text><line class="l2" x1="176" y1="236" x2="146" y2="116" marker-end="url(#ah-rot)"/><circle class="pt" cx="146" cy="116" r="3"/><text class="t" x="140" y="110" text-anchor="end">T(u)</text><line class="l2" x1="176" y1="236" x2="86" y2="176" marker-end="url(#ah-rot)"/><circle class="pt" cx="86" cy="176" r="3"/><text class="t" x="80" y="190" text-anchor="end">T(v)</text><line class="l2" x1="176" y1="236" x2="56" y2="56" marker-end="url(#ah-rot)"/><circle class="pt" cx="56" cy="56" r="3"/><text class="t" x="50" y="50" text-anchor="end">T(u + v)</text></g></svg>
