<svg xmlns="http://www.w3.org/2000/svg" viewBox="0 0 550.0 196.0" width="550.0" role="img" aria-label="Shear transformation: the 2-by-2 square is mapped to a parallelogram; the top edge slides right while the base stays fixed"><defs><marker id="ah-sh1" viewBox="0 0 10 10" refX="9" refY="5" markerUnits="userSpaceOnUse" markerWidth="11" markerHeight="11" orient="auto"><path class="arrowhead" d="M0,0 L10,5 L0,10 z"/></marker><marker id="ah-sh2" viewBox="0 0 10 10" refX="9" refY="5" markerUnits="userSpaceOnUse" markerWidth="11" markerHeight="11" orient="auto"><path class="arrowhead" d="M0,0 L10,5 L0,10 z"/></marker></defs><g transform="translate(0,0)"><polygon class="hl" points="40.0,132.0 120.0,132.0 120.0,52.0 40.0,52.0" style="opacity:0.55"/><line class="ax" x1="20.0" y1="132.0" x2="160.0" y2="132.0"/><line class="ax" x1="40.0" y1="152.0" x2="40.0" y2="20.0"/><text x="156.0" y="126.0" text-anchor="end"><tspan style="font-family: var(--font-serif); font-style: italic">x</tspan><tspan dy="4" font-size="10">1</tspan><tspan dy="-4">​</tspan></text><text x="46.0" y="32.0"><tspan style="font-family: var(--font-serif); font-style: italic">x</tspan><tspan dy="4" font-size="10">2</tspan><tspan dy="-4">​</tspan></text><line class="ax" x1="80.0" y1="129.0" x2="80.0" y2="135.0"/><line class="ax" x1="120.0" y1="129.0" x2="120.0" y2="135.0"/><line class="ax" x1="160.0" y1="129.0" x2="160.0" y2="135.0"/><line class="ax" x1="37.0" y1="92.0" x2="43.0" y2="92.0"/><line class="ax" x1="37.0" y1="52.0" x2="43.0" y2="52.0"/><text class="" x="116.0" y="148.0" text-anchor="start">2</text><text class="" x="26.0" y="56.0" text-anchor="start">2</text><circle class="pt" cx="40.0" cy="52.0" r="4"/><text class="t" x="48.0" y="70.0" text-anchor="start">u = (0, 2)</text></g><g transform="translate(210.0,0)"><polygon class="hl" points="40.0,132.0 120.0,132.0 280.0,52.0 200.0,52.0" style="opacity:0.55"/><line class="ax" x1="20.0" y1="132.0" x2="320.0" y2="132.0"/><line class="ax" x1="40.0" y1="152.0" x2="40.0" y2="20.0"/><text x="316.0" y="126.0" text-anchor="end"><tspan style="font-family: var(--font-serif); font-style: italic">x</tspan><tspan dy="4" font-size="10">1</tspan><tspan dy="-4">​</tspan></text><text x="46.0" y="32.0"><tspan style="font-family: var(--font-serif); font-style: italic">x</tspan><tspan dy="4" font-size="10">2</tspan><tspan dy="-4">​</tspan></text><line class="ax" x1="80.0" y1="129.0" x2="80.0" y2="135.0"/><line class="ax" x1="120.0" y1="129.0" x2="120.0" y2="135.0"/><line class="ax" x1="160.0" y1="129.0" x2="160.0" y2="135.0"/><line class="ax" x1="200.0" y1="129.0" x2="200.0" y2="135.0"/><line class="ax" x1="240.0" y1="129.0" x2="240.0" y2="135.0"/><line class="ax" x1="280.0" y1="129.0" x2="280.0" y2="135.0"/><line class="ax" x1="320.0" y1="129.0" x2="320.0" y2="135.0"/><line class="ax" x1="37.0" y1="92.0" x2="43.0" y2="92.0"/><line class="ax" x1="37.0" y1="52.0" x2="43.0" y2="52.0"/><line class="ax" x1="120.0" y1="52.0" x2="280.0" y2="52.0" stroke-dasharray="4 4"/><circle class="pt" cx="200.0" cy="52.0" r="4"/><text class="t" x="196.0" y="44.0" text-anchor="end">T(u) = (4, 2)</text><circle class="pt" cx="280.0" cy="52.0" r="4"/><text class="t" x="284.0" y="44.0" text-anchor="start">(6, 2)</text><text class="" x="116.0" y="148.0" text-anchor="start">2</text><text class="" x="276.0" y="148.0" text-anchor="start">6</text></g><text x="90.0" y="190.0" text-anchor="middle">the 2 × 2 square</text><text x="380.0" y="190.0" text-anchor="middle">its image under T(x) = Ax</text><text x="195.0" y="90.0" text-anchor="middle" class="t">T</text><text x="195.0" y="104.0" text-anchor="middle">→</text></svg>
