<svg xmlns="http://www.w3.org/2000/svg" viewBox="0 0 567.0 207.8" width="567.0" role="img" aria-label="The letter N drawn from its eight vertices, then sheared, then sheared and narrowed"><defs><marker id="ah-n1" viewBox="0 0 10 10" refX="9" refY="5" markerUnits="userSpaceOnUse" markerWidth="11" markerHeight="11" orient="auto"><path class="arrowhead" d="M0,0 L10,5 L0,10 z"/></marker><marker id="ah-n2" viewBox="0 0 10 10" refX="9" refY="5" markerUnits="userSpaceOnUse" markerWidth="11" markerHeight="11" orient="auto"><path class="arrowhead" d="M0,0 L10,5 L0,10 z"/></marker><marker id="ah-n3" viewBox="0 0 10 10" refX="9" refY="5" markerUnits="userSpaceOnUse" markerWidth="11" markerHeight="11" orient="auto"><path class="arrowhead" d="M0,0 L10,5 L0,10 z"/></marker></defs><g transform="translate(0,0)"><polygon class="hl" points="22.2,161.6 30.7,161.6 30.7,52.5 124.2,161.6 124.2,25.6 115.7,25.6 115.7,134.7 22.2,25.6" style="opacity:0.5"/><polyline class="l1" points="22.2,161.6 30.7,161.6 30.7,52.5 124.2,161.6 124.2,25.6 115.7,25.6 115.7,134.7 22.2,25.6 22.2,161.6" style="fill:none"/></g><text x="88.5" y="201.8" text-anchor="middle">D (the data matrix)</text><g transform="translate(195.0,0)"><polygon class="hl" points="22.2,161.6 30.7,161.6 58.0,52.5 124.2,161.6 158.2,25.6 149.7,25.6 122.4,134.7 56.2,25.6" style="opacity:0.5"/><polyline class="l1" points="22.2,161.6 30.7,161.6 58.0,52.5 124.2,161.6 158.2,25.6 149.7,25.6 122.4,134.7 56.2,25.6 22.2,161.6" style="fill:none"/></g><text x="283.5" y="201.8" text-anchor="middle">AD (shear by .25)</text><g transform="translate(390.0,0)"><polygon class="hl" points="22.2,161.6 28.6,161.6 49.0,52.5 98.7,161.6 124.2,25.6 117.8,25.6 97.4,134.7 47.7,25.6" style="opacity:0.5"/><polyline class="l1" points="22.2,161.6 28.6,161.6 49.0,52.5 98.7,161.6 124.2,25.6 117.8,25.6 97.4,134.7 47.7,25.6 22.2,161.6" style="fill:none"/></g><text x="478.5" y="201.8" text-anchor="middle">(SA)D (shear, then narrow)</text></svg>
