<svg xmlns="http://www.w3.org/2000/svg" viewBox="0 0 560 300" width="560" role="img" aria-label="Traffic flow in downtown Baltimore: four intersections A, B, C, D"><defs><marker id="ah-balt" viewBox="0 0 10 10" refX="5" refY="5" markerWidth="9" markerHeight="9" orient="auto"><path class="arrowhead" d="M0,0 L10,5 L0,10 z"/></marker></defs><line class="l1" x1="540" y1="90" x2="460.0" y2="90.0" marker-end="url(#ah-balt)"/><line class="l1" x1="460.0" y1="90.0" x2="380" y2="90"/><text class="m" x="520" y="80" text-anchor="middle">400</text><line class="l1" x1="380" y1="90" x2="280.0" y2="90.0" marker-end="url(#ah-balt)"/><line class="l1" x1="280.0" y1="90.0" x2="180" y2="90"/><text class="m" x="280" y="80" text-anchor="middle">x4</text><line class="l1" x1="180" y1="90" x2="100.0" y2="90.0" marker-end="url(#ah-balt)"/><line class="l1" x1="100.0" y1="90.0" x2="20" y2="90"/><text class="m" x="40" y="80" text-anchor="middle">300</text><line class="l1" x1="20" y1="200" x2="100.0" y2="200.0" marker-end="url(#ah-balt)"/><line class="l1" x1="100.0" y1="200.0" x2="180" y2="200"/><text class="m" x="40" y="190" text-anchor="middle">300</text><line class="l1" x1="180" y1="200" x2="280.0" y2="200.0" marker-end="url(#ah-balt)"/><line class="l1" x1="280.0" y1="200.0" x2="380" y2="200"/><text class="m" x="280" y="222" text-anchor="middle">x1</text><line class="l1" x1="380" y1="200" x2="460.0" y2="200.0" marker-end="url(#ah-balt)"/><line class="l1" x1="460.0" y1="200.0" x2="540" y2="200"/><text class="m" x="520" y="190" text-anchor="middle">600</text><line class="l1" x1="180" y1="290" x2="180.0" y2="245.0" marker-end="url(#ah-balt)"/><line class="l1" x1="180.0" y1="245.0" x2="180" y2="200"/><text class="m" x="205" y="285" text-anchor="middle">500</text><line class="l1" x1="180" y1="200" x2="180.0" y2="145.0" marker-end="url(#ah-balt)"/><line class="l1" x1="180.0" y1="145.0" x2="180" y2="90"/><text class="m" x="158" y="150" text-anchor="middle">x2</text><line class="l1" x1="180" y1="90" x2="180.0" y2="51.0" marker-end="url(#ah-balt)"/><line class="l1" x1="180.0" y1="51.0" x2="180" y2="12"/><text class="m" x="200" y="24" text-anchor="middle">x3</text><line class="l1" x1="380" y1="12" x2="380.0" y2="51.0" marker-end="url(#ah-balt)"/><line class="l1" x1="380.0" y1="51.0" x2="380" y2="90"/><text class="m" x="402" y="24" text-anchor="middle">100</text><line class="l1" x1="380" y1="90" x2="380.0" y2="145.0" marker-end="url(#ah-balt)"/><line class="l1" x1="380.0" y1="145.0" x2="380" y2="200"/><text class="m" x="402" y="150" text-anchor="middle">x5</text><circle class="pt" cx="180" cy="200" r="5"/><text class="t" x="158" y="220">A</text><circle class="pt" cx="180" cy="90" r="5"/><text class="t" x="158" y="82">B</text><circle class="pt" cx="380" cy="90" r="5"/><text class="t" x="390" y="82">C</text><circle class="pt" cx="380" cy="200" r="5"/><text class="t" x="390" y="220">D</text><text x="60" y="108">Lombard St.</text><text x="60" y="218">Pratt St.</text><text x="172" y="262" text-anchor="end">Calvert St.</text><text x="392" y="262">South St.</text></svg>
