<svg xmlns="http://www.w3.org/2000/svg" viewBox="0 0 480 235" width="480" role="img" aria-label="Metal plate with four interior nodes and boundary temperatures"><rect class="box" x="160" y="40" width="160" height="160"/><line class="ax" x1="200" y1="40" x2="200" y2="200"/><line class="ax" x1="280" y1="40" x2="280" y2="200"/><line class="ax" x1="160" y1="80" x2="320" y2="80"/><line class="ax" x1="160" y1="160" x2="320" y2="160"/><rect class="hl" x="187" y="67" width="26" height="26" rx="5"/><text class="pv" x="200" y="85" text-anchor="middle">1</text><rect class="hl" x="267" y="67" width="26" height="26" rx="5"/><text class="pv" x="280" y="85" text-anchor="middle">2</text><rect class="hl" x="267" y="147" width="26" height="26" rx="5"/><text class="pv" x="280" y="165" text-anchor="middle">3</text><rect class="hl" x="187" y="147" width="26" height="26" rx="5"/><text class="pv" x="200" y="165" text-anchor="middle">4</text><text class="t" x="200" y="30" text-anchor="middle">20°</text><text class="t" x="200" y="220" text-anchor="middle">30°</text><text class="t" x="280" y="30" text-anchor="middle">20°</text><text class="t" x="280" y="220" text-anchor="middle">30°</text><text class="t" x="150" y="85" text-anchor="end">10°</text><text class="t" x="330" y="85">40°</text><text class="t" x="150" y="165" text-anchor="end">10°</text><text class="t" x="330" y="165">40°</text></svg>
