<svg xmlns="http://www.w3.org/2000/svg" viewBox="0 0 367.0 224.2" width="367.0" role="img" aria-label="Triangular plate with vertices v1 = (0, 1), v2 = (8, 1), v3 = (2, 4)"><defs><marker id="ah-ex39" viewBox="0 0 10 10" refX="9" refY="5" markerUnits="userSpaceOnUse" markerWidth="11" markerHeight="11" orient="auto"><path class="arrowhead" d="M0,0 L10,5 L0,10 z"/></marker></defs><polygon class="hl" points="39.0,151.2 311.0,151.2 107.0,49.2" style="opacity:0.6"/><line class="ax" x1="22.0" y1="185.2" x2="345.0" y2="185.2"/><line class="ax" x1="39.0" y1="202.2" x2="39.0" y2="22.0"/><text x="341.0" y="179.2" text-anchor="end">x1</text><text x="45.0" y="34.0">x2</text><line class="ax" x1="73.0" y1="182.2" x2="73.0" y2="188.2"/><line class="ax" x1="107.0" y1="182.2" x2="107.0" y2="188.2"/><line class="ax" x1="141.0" y1="182.2" x2="141.0" y2="188.2"/><line class="ax" x1="175.0" y1="182.2" x2="175.0" y2="188.2"/><line class="ax" x1="209.0" y1="182.2" x2="209.0" y2="188.2"/><line class="ax" x1="243.0" y1="182.2" x2="243.0" y2="188.2"/><line class="ax" x1="277.0" y1="182.2" x2="277.0" y2="188.2"/><line class="ax" x1="311.0" y1="182.2" x2="311.0" y2="188.2"/><line class="ax" x1="345.0" y1="182.2" x2="345.0" y2="188.2"/><line class="ax" x1="36.0" y1="151.2" x2="42.0" y2="151.2"/><line class="ax" x1="36.0" y1="117.2" x2="42.0" y2="117.2"/><line class="ax" x1="36.0" y1="83.2" x2="42.0" y2="83.2"/><line class="ax" x1="36.0" y1="49.2" x2="42.0" y2="49.2"/><circle class="pt" cx="39.0" cy="151.2" r="4"/><text class="t" x="17.0" y="147.2" text-anchor="start">v1</text><circle class="pt" cx="311.0" cy="151.2" r="4"/><text class="t" x="317.0" y="165.2" text-anchor="start">v2</text><circle class="pt" cx="107.0" cy="49.2" r="4"/><text class="t" x="111.0" y="41.2" text-anchor="start">v3</text><text class="" x="307.0" y="201.2" text-anchor="start">8</text><text class="" x="23.0" y="53.2" text-anchor="start">4</text></svg>
