<svg xmlns="http://www.w3.org/2000/svg" viewBox="0 0 560 210" width="560" role="img" aria-label="A ladder network: a series circuit with resistance R1 followed by a shunt circuit with resistance R2"><defs><marker id="ah-lad" viewBox="0 0 10 10" refX="9" refY="5" markerUnits="userSpaceOnUse" markerWidth="11" markerHeight="11" orient="auto"><path class="arrowhead" d="M0,0 L10,5 L0,10 z"/></marker></defs><rect x="120" y="46" width="150" height="120" class="ax" style="fill:none;stroke-dasharray:5 4"/><text x="195.0" y="182" text-anchor="middle">a series circuit</text><rect x="300" y="46" width="150" height="120" class="ax" style="fill:none;stroke-dasharray:5 4"/><text x="375.0" y="182" text-anchor="middle">a shunt circuit</text><line x1="40" y1="70" x2="130" y2="70" style="stroke:currentColor;stroke-width:1.6"/><line x1="130" y1="70" x2="181.0" y2="70.0" style="stroke:currentColor;stroke-width:1.6"/><line x1="209.0" y1="70.0" x2="260" y2="70" style="stroke:currentColor;stroke-width:1.6"/><polyline points="181.0,70.0 185.0,75.0 189.0,65.0 193.0,75.0 197.0,65.0 201.0,75.0 205.0,65.0 209.0,70.0" style="fill:none;stroke:currentColor;stroke-width:1.6"/><text class="m" x="195.0" y="59.0" text-anchor="middle">R1</text><line x1="260" y1="70" x2="380" y2="70" style="stroke:currentColor;stroke-width:1.6"/><line x1="380" y1="70" x2="520" y2="70" style="stroke:currentColor;stroke-width:1.6"/><line x1="40" y1="150" x2="520" y2="150" style="stroke:currentColor;stroke-width:1.6"/><line x1="380" y1="70" x2="380.0" y2="96.0" style="stroke:currentColor;stroke-width:1.6"/><line x1="380.0" y1="124.0" x2="380" y2="150" style="stroke:currentColor;stroke-width:1.6"/><polyline points="380.0,96.0 375.0,100.0 385.0,104.0 375.0,108.0 385.0,112.0 375.0,116.0 385.0,120.0 380.0,124.0" style="fill:none;stroke:currentColor;stroke-width:1.6"/><text class="m" x="398.0" y="114.0" text-anchor="middle">R2</text><circle cx="40" cy="70" r="3.2" style="fill:currentColor"/><text class="m" x="24" y="74" text-anchor="middle">v<tspan dy="4" font-size="10">1</tspan><tspan dy="-4">​</tspan></text><circle cx="40" cy="150" r="3.2" style="fill:currentColor"/><text class="m" x="40" y="154" text-anchor="middle"></text><circle cx="285" cy="70" r="3.2" style="fill:currentColor"/><text class="m" x="285" y="92" text-anchor="middle">v<tspan dy="4" font-size="10">2</tspan><tspan dy="-4">​</tspan></text><circle cx="285" cy="150" r="3.2" style="fill:currentColor"/><text class="m" x="285" y="154" text-anchor="middle"></text><circle cx="520" cy="70" r="3.2" style="fill:currentColor"/><text class="m" x="536" y="74" text-anchor="middle">v<tspan dy="4" font-size="10">3</tspan><tspan dy="-4">​</tspan></text><circle cx="520" cy="150" r="3.2" style="fill:currentColor"/><text class="m" x="520" y="154" text-anchor="middle"></text><line class="l1" x1="60" y1="44" x2="110" y2="44" marker-end="url(#ah-lad)"/><text class="m" x="85" y="36" text-anchor="middle">i<tspan dy="4" font-size="10">1</tspan><tspan dy="-4">​</tspan></text><line class="l1" x1="290" y1="44" x2="340" y2="44" marker-end="url(#ah-lad)"/><text class="m" x="315" y="36" text-anchor="middle">i<tspan dy="4" font-size="10">2</tspan><tspan dy="-4">​</tspan></text><line class="l1" x1="460" y1="44" x2="510" y2="44" marker-end="url(#ah-lad)"/><text class="m" x="485" y="36" text-anchor="middle">i<tspan dy="4" font-size="10">3</tspan><tspan dy="-4">​</tspan></text></svg>
