<svg xmlns="http://www.w3.org/2000/svg" viewBox="0 0 640 272" width="640" role="img" aria-label="Solution set of Ax = 0: a line through 0 (one free variable) or a plane through 0 (two free variables)"><defs><marker id="ah-3d" viewBox="0 0 10 10" refX="9" refY="5" markerUnits="userSpaceOnUse" markerWidth="11" markerHeight="11" orient="auto"><path class="arrowhead" d="M0,0 L10,5 L0,10 z"/></marker></defs><line class="ax" x1="150.0" y1="150.0" x2="88.7" y2="191.5"/><text x="92.7" y="195.5"><tspan style="font-family: var(--font-serif); font-style: italic">x</tspan><tspan dy="4" font-size="10">1</tspan><tspan dy="-4">​</tspan></text><line class="ax" x1="150.0" y1="150.0" x2="271.6" y2="150.0"/><text x="275.6" y="154.0"><tspan style="font-family: var(--font-serif); font-style: italic">x</tspan><tspan dy="4" font-size="10">2</tspan><tspan dy="-4">​</tspan></text><line class="ax" x1="150.0" y1="150.0" x2="150.0" y2="43.6"/><text x="154.0" y="47.6"><tspan style="font-family: var(--font-serif); font-style: italic">x</tspan><tspan dy="4" font-size="10">3</tspan><tspan dy="-4">​</tspan></text><line class="l1" x1="192.4" y1="172.6" x2="74.6" y2="109.9"/><line class="l2" x1="150.0" y1="150.0" x2="102.9" y2="124.9" marker-end="url(#ah-3d)"/><circle class="pt" cx="102.9" cy="124.9" r="3.5"/><text class="t" x="98.9" y="142.9">v</text><text class="t" x="70.6" y="101.9" text-anchor="middle">Span{v}</text><text x="150" y="262" text-anchor="middle">one free variable: a line through 0</text><polygon class="hl" points="455.8,166.2 556.1,181.7 541.6,75.2 441.4,59.7" style="opacity:0.5"/><line class="ax" x1="470.0" y1="150.0" x2="408.7" y2="191.5"/><text x="412.7" y="195.5"><tspan style="font-family: var(--font-serif); font-style: italic">x</tspan><tspan dy="4" font-size="10">1</tspan><tspan dy="-4">​</tspan></text><line class="ax" x1="470.0" y1="150.0" x2="591.6" y2="150.0"/><text x="595.6" y="154.0"><tspan style="font-family: var(--font-serif); font-style: italic">x</tspan><tspan dy="4" font-size="10">2</tspan><tspan dy="-4">​</tspan></text><line class="ax" x1="470.0" y1="150.0" x2="470.0" y2="43.6"/><text x="474.0" y="47.6"><tspan style="font-family: var(--font-serif); font-style: italic">x</tspan><tspan dy="4" font-size="10">3</tspan><tspan dy="-4">​</tspan></text><line class="l2" x1="470.0" y1="150.0" x2="525.7" y2="158.6" marker-end="url(#ah-3d)"/><line class="l2" x1="470.0" y1="150.0" x2="461.5" y2="87.3" marker-end="url(#ah-3d)"/><circle class="pt" cx="525.7" cy="158.6" r="3.5"/><text class="t" x="527.7" y="176.6">u</text><circle class="pt" cx="461.5" cy="87.3" r="3.5"/><text class="t" x="443.5" y="89.3">v</text><text class="t" x="547.6" y="75.2">Span{u, v}</text><text x="470" y="262" text-anchor="middle">two free variables: a plane through 0</text></svg>
