<svg xmlns="http://www.w3.org/2000/svg" viewBox="0 0 372 244.0" width="372" role="img" aria-label="Three vectors (2, 1), (4, −1), (−2, 2) in the plane: a linearly dependent set"><defs><marker id="ah-thm8" viewBox="0 0 10 10" refX="9" refY="5" markerUnits="userSpaceOnUse" markerWidth="11" markerHeight="11" orient="auto"><path class="arrowhead" d="M0,0 L10,5 L0,10 z"/></marker></defs><g transform="translate(0,0)"><line class="ax" x1="26" y1="146" x2="346" y2="146"/><line class="ax" x1="146" y1="218.0" x2="146" y2="26"/><text x="342" y="140" text-anchor="end"><tspan style="font-family: var(--font-serif); font-style: italic">x</tspan><tspan dy="4" font-size="10">1</tspan><tspan dy="-4">​</tspan></text><text x="152" y="38"><tspan style="font-family: var(--font-serif); font-style: italic">x</tspan><tspan dy="4" font-size="10">2</tspan><tspan dy="-4">​</tspan></text><line class="ax" x1="26" y1="143" x2="26" y2="149"/><line class="ax" x1="66" y1="143" x2="66" y2="149"/><line class="ax" x1="106" y1="143" x2="106" y2="149"/><line class="ax" x1="186" y1="143" x2="186" y2="149"/><line class="ax" x1="226" y1="143" x2="226" y2="149"/><line class="ax" x1="266" y1="143" x2="266" y2="149"/><line class="ax" x1="306" y1="143" x2="306" y2="149"/><line class="ax" x1="346" y1="143" x2="346" y2="149"/><line class="ax" x1="143" y1="186" x2="149" y2="186"/><line class="ax" x1="143" y1="106" x2="149" y2="106"/><line class="ax" x1="143" y1="66" x2="149" y2="66"/><line class="ax" x1="143" y1="26" x2="149" y2="26"/><line class="l1" x1="146" y1="146" x2="226" y2="106" marker-end="url(#ah-thm8)"/><circle class="pt" cx="226" cy="106" r="3.5"/><text class="t" x="230" y="100" text-anchor="start">(2, 1)</text><line class="l1" x1="146" y1="146" x2="306" y2="186" marker-end="url(#ah-thm8)"/><circle class="pt" cx="306" cy="186" r="3.5"/><text class="t" x="310" y="202" text-anchor="start">(4, -1)</text><line class="l1" x1="146" y1="146" x2="66" y2="66" marker-end="url(#ah-thm8)"/><circle class="pt" cx="66" cy="66" r="3.5"/><text class="t" x="62" y="60" text-anchor="end">(-2, 2)</text></g></svg>
